<svg width="18" height="15" viewBox="0 0 18 15" fill="none" xmlns="http://www.w3.org/2000/svg">
<g clip-path="url(#clip0_69_278)">
<path d="M6.04141 0.75C6.25469 0.75 6.43242 0.905859 6.49805 1.11094C6.83438 2.16914 7.82695 2.9375 9 2.9375C10.173 2.9375 11.1656 2.16914 11.502 1.11094C11.5676 0.905859 11.7453 0.75 11.9586 0.75H12.3031C12.9184 0.75 13.5117 0.966016 13.9848 1.35977L17.4355 4.23359C17.616 4.38398 17.7281 4.60273 17.7473 4.83789C17.7664 5.07305 17.6898 5.30547 17.534 5.4832L16.0027 7.2332C15.691 7.59141 15.1496 7.63242 14.7832 7.32891L13.375 6.15586V13C13.375 13.9652 12.5902 14.75 11.625 14.75H6.375C5.40977 14.75 4.625 13.9652 4.625 13V6.15586L3.2168 7.32891C2.85313 7.63242 2.31172 7.59141 1.99727 7.2332L0.466016 5.4832C0.310157 5.30547 0.233595 5.07305 0.252735 4.83789C0.271876 4.60273 0.383985 4.38398 0.564454 4.23359L4.01524 1.35977C4.48828 0.966016 5.08164 0.75 5.69688 0.75H6.04141Z" fill="#F472B6"/>
</g>
<defs>
<clipPath id="clip0_69_278">
<path d="M0.25 0.75H17.75V14.75H0.25V0.75Z" fill="white"/>
</clipPath>
</defs>
</svg>
