<svg width="14" height="15" viewBox="0 0 14 15" fill="none" xmlns="http://www.w3.org/2000/svg">
<path d="M14 14.75H0V0.75H14V14.75Z" stroke="#E5E7EB"/>
<path d="M1.75 1.625C0.784766 1.625 0 2.40977 0 3.375V12.125C0 13.0902 0.784766 13.875 1.75 13.875H12.25C13.2152 13.875 14 13.0902 14 12.125V6C14 5.03477 13.2152 4.25 12.25 4.25H2.1875C1.94687 4.25 1.75 4.05312 1.75 3.8125C1.75 3.57187 1.94687 3.375 2.1875 3.375H12.25C12.734 3.375 13.125 2.98398 13.125 2.5C13.125 2.01602 12.734 1.625 12.25 1.625H1.75ZM11.375 8.1875C11.6071 8.1875 11.8296 8.27969 11.9937 8.44378C12.1578 8.60788 12.25 8.83044 12.25 9.0625C12.25 9.29456 12.1578 9.51712 11.9937 9.68122C11.8296 9.84531 11.6071 9.9375 11.375 9.9375C11.1429 9.9375 10.9204 9.84531 10.7563 9.68122C10.5922 9.51712 10.5 9.29456 10.5 9.0625C10.5 8.83044 10.5922 8.60788 10.7563 8.44378C10.9204 8.27969 11.1429 8.1875 11.375 8.1875Z" fill="#A78BFA"/>
</svg>
