<svg width="12" height="15" viewBox="0 0 12 15" fill="none" xmlns="http://www.w3.org/2000/svg">
<g clip-path="url(#clip0_69_272)">
<path d="M1.1875 2.5C1.1875 1.53477 1.97227 0.75 2.9375 0.75H9.0625C10.0277 0.75 10.8125 1.53477 10.8125 2.5V13C10.8125 13.9652 10.0277 14.75 9.0625 14.75H2.9375C1.97227 14.75 1.1875 13.9652 1.1875 13V2.5ZM6.875 13C6.875 12.7679 6.78281 12.5454 6.61872 12.3813C6.45462 12.2172 6.23206 12.125 6 12.125C5.76794 12.125 5.54538 12.2172 5.38128 12.3813C5.21719 12.5454 5.125 12.7679 5.125 13C5.125 13.2321 5.21719 13.4546 5.38128 13.6187C5.54538 13.7828 5.76794 13.875 6 13.875C6.23206 13.875 6.45462 13.7828 6.61872 13.6187C6.78281 13.4546 6.875 13.2321 6.875 13ZM9.0625 2.5H2.9375V11.25H9.0625V2.5Z" fill="#60A5FA"/>
</g>
<defs>
<clipPath id="clip0_69_272">
<path d="M0.75 0.75H11.25V14.75H0.75V0.75Z" fill="white"/>
</clipPath>
</defs>
</svg>
