<svg width="14" height="15" viewBox="0 0 14 15" fill="none" xmlns="http://www.w3.org/2000/svg">
<g clip-path="url(#clip0_69_281)">
<path d="M5.25 3.8125C5.25 2.84727 6.03477 2.0625 7 2.0625C7.96523 2.0625 8.75 2.84727 8.75 3.8125V5.125H5.25V3.8125ZM3.9375 5.125H2.1875C1.46289 5.125 0.875 5.71289 0.875 6.4375V12.125C0.875 13.5742 2.05078 14.75 3.5 14.75H10.5C11.9492 14.75 13.125 13.5742 13.125 12.125V6.4375C13.125 5.71289 12.5371 5.125 11.8125 5.125H10.0625V3.8125C10.0625 2.11992 8.69258 0.75 7 0.75C5.30742 0.75 3.9375 2.11992 3.9375 3.8125V5.125ZM4.59375 6.4375C4.7678 6.4375 4.93472 6.50664 5.05779 6.62971C5.18086 6.75278 5.25 6.9197 5.25 7.09375C5.25 7.2678 5.18086 7.43472 5.05779 7.55779C4.93472 7.68086 4.7678 7.75 4.59375 7.75C4.4197 7.75 4.25278 7.68086 4.12971 7.55779C4.00664 7.43472 3.9375 7.2678 3.9375 7.09375C3.9375 6.9197 4.00664 6.75278 4.12971 6.62971C4.25278 6.50664 4.4197 6.4375 4.59375 6.4375ZM8.75 7.09375C8.75 6.9197 8.81914 6.75278 8.94221 6.62971C9.06528 6.50664 9.2322 6.4375 9.40625 6.4375C9.5803 6.4375 9.74722 6.50664 9.87029 6.62971C9.99336 6.75278 10.0625 6.9197 10.0625 7.09375C10.0625 7.2678 9.99336 7.43472 9.87029 7.55779C9.74722 7.68086 9.5803 7.75 9.40625 7.75C9.2322 7.75 9.06528 7.68086 8.94221 7.55779C8.81914 7.43472 8.75 7.2678 8.75 7.09375Z" fill="#60A5FA"/>
</g>
<defs>
<clipPath id="clip0_69_281">
<path d="M0.875 0.75H13.125V14.75H0.875V0.75Z" fill="white"/>
</clipPath>
</defs>
</svg>
