<svg width="14" height="15" viewBox="0 0 14 15" fill="none" xmlns="http://www.w3.org/2000/svg">
<path d="M13.125 14.75H0.875V0.75H13.125V14.75Z" stroke="#E5E7EB"/>
<path d="M1.09375 7.75C1.09375 7.34389 1.25508 6.95441 1.54224 6.66724C1.82941 6.38008 2.21889 6.21875 2.625 6.21875C3.03111 6.21875 3.42059 6.38008 3.70776 6.66724C3.99492 6.95441 4.15625 7.34389 4.15625 7.75C4.15625 8.15611 3.99492 8.54559 3.70776 8.83276C3.42059 9.11992 3.03111 9.28125 2.625 9.28125C2.21889 9.28125 1.82941 9.11992 1.54224 8.83276C1.25508 8.54559 1.09375 8.15611 1.09375 7.75ZM5.46875 7.75C5.46875 7.34389 5.63008 6.95441 5.91724 6.66724C6.20441 6.38008 6.59389 6.21875 7 6.21875C7.40611 6.21875 7.79559 6.38008 8.08276 6.66724C8.36992 6.95441 8.53125 7.34389 8.53125 7.75C8.53125 8.15611 8.36992 8.54559 8.08276 8.83276C7.79559 9.11992 7.40611 9.28125 7 9.28125C6.59389 9.28125 6.20441 9.11992 5.91724 8.83276C5.63008 8.54559 5.46875 8.15611 5.46875 7.75ZM11.375 6.21875C11.7811 6.21875 12.1706 6.38008 12.4578 6.66724C12.7449 6.95441 12.9062 7.34389 12.9062 7.75C12.9062 8.15611 12.7449 8.54559 12.4578 8.83276C12.1706 9.11992 11.7811 9.28125 11.375 9.28125C10.9689 9.28125 10.5794 9.11992 10.2922 8.83276C10.0051 8.54559 9.84375 8.15611 9.84375 7.75C9.84375 7.34389 10.0051 6.95441 10.2922 6.66724C10.5794 6.38008 10.9689 6.21875 11.375 6.21875Z" fill="#F472B6"/>
</svg>
