<svg width="14" height="15" viewBox="0 0 14 15" fill="none" xmlns="http://www.w3.org/2000/svg">
<path d="M14 14.75H0V0.75H14V14.75Z" stroke="#E5E7EB"/>
<path d="M1.75 6.4375C1.75 6.65078 1.87031 6.94883 2.21758 7.26602C3.45898 6.6043 5.16523 6.21875 7 6.21875C8.83477 6.21875 10.541 6.6043 11.7824 7.26602C12.1297 6.94883 12.25 6.65078 12.25 6.4375C12.25 6.10117 11.9547 5.5625 10.9402 5.05391C9.97773 4.57266 8.58594 4.25 7 4.25C5.41406 4.25 4.02227 4.57266 3.05977 5.05391C2.04531 5.5625 1.75 6.10117 1.75 6.4375ZM7 7.53125C5.71484 7.53125 4.5582 7.73906 3.63945 8.06992C4.54727 8.41172 5.70937 8.625 7 8.625C8.29062 8.625 9.45273 8.41172 10.3605 8.06992C9.4418 7.73906 8.28516 7.53125 7 7.53125ZM0 6.4375C0 5.08125 1.07734 4.09141 2.27773 3.48984C3.53008 2.86367 5.20352 2.5 7 2.5C8.79648 2.5 10.4699 2.86367 11.7223 3.48984C12.9227 4.09141 14 5.08125 14 6.4375V9.0625C14 10.4187 12.9227 11.4086 11.7223 12.0102C10.4699 12.6363 8.79648 13 7 13C5.20352 13 3.53008 12.6363 2.27773 12.0102C1.07734 11.4086 0 10.4187 0 9.0625V6.4375Z" fill="#A78BFA"/>
</svg>
