<svg width="14" height="15" viewBox="0 0 14 15" fill="none" xmlns="http://www.w3.org/2000/svg">
<g clip-path="url(#clip0_110_98)">
<path d="M13.9219 7.90859C13.9219 11.7777 11.2723 14.5312 7.35938 14.5312C3.60781 14.5312 0.578125 11.5016 0.578125 7.75C0.578125 3.99844 3.60781 0.96875 7.35938 0.96875C9.18594 0.96875 10.7227 1.63867 11.9066 2.74336L10.0609 4.51797C7.64648 2.18828 3.15664 3.93828 3.15664 7.75C3.15664 10.1152 5.04609 12.032 7.35938 12.032C10.0445 12.032 11.0508 10.107 11.2094 9.10898H7.35938V6.77656H13.8152C13.8781 7.12383 13.9219 7.45742 13.9219 7.90859Z" fill="#374151"/>
</g>
<defs>
<clipPath id="clip0_110_98">
<path d="M0.578125 0.75H13.9219V14.75H0.578125V0.75Z" fill="white"/>
</clipPath>
</defs>
</svg>
