<svg width="15" height="20" viewBox="0 0 15 20" fill="none" xmlns="http://www.w3.org/2000/svg">
<path d="M14.25 20H0.25V0H14.25V20Z" stroke="#E5E7EB"/>
<g clip-path="url(#clip0_110_91)">
<path d="M14.25 9.3125C14.25 12.4543 11.1164 15 7.24996 15C6.2355 15 5.273 14.825 4.40347 14.5105C4.07808 14.7484 3.54761 15.0738 2.91871 15.3473C2.26246 15.6316 1.47222 15.875 0.687456 15.875C0.509722 15.875 0.351128 15.7684 0.282769 15.6043C0.21441 15.4402 0.252691 15.2543 0.375738 15.1285L0.383941 15.1203C0.392144 15.1121 0.403081 15.1012 0.419488 15.082C0.449566 15.0492 0.49605 14.9973 0.553472 14.9262C0.665581 14.7895 0.815972 14.5871 0.969097 14.3355C1.24253 13.8816 1.5023 13.2855 1.55425 12.6156C0.733941 11.6859 0.249956 10.5457 0.249956 9.3125C0.249956 6.1707 3.38355 3.625 7.24996 3.625C11.1164 3.625 14.25 6.1707 14.25 9.3125Z" fill="#1F2937"/>
</g>
<defs>
<clipPath id="clip0_110_91">
<path d="M0.25 2.75H14.25V16.75H0.25V2.75Z" fill="white"/>
</clipPath>
</defs>
</svg>
