<svg width="37" height="37" viewBox="0 0 37 37" fill="none" xmlns="http://www.w3.org/2000/svg">
<path d="M18.5 33.9166C16.3931 33.9166 14.4017 33.5119 12.526 32.7025C10.6503 31.8931 9.01232 30.7883 7.61197 29.3879C6.21163 27.9876 5.10677 26.3496 4.29739 24.4739C3.48802 22.5982 3.08333 20.6069 3.08333 18.4999C3.08333 16.3673 3.48802 14.3695 4.29739 12.5067C5.10677 10.6438 6.21163 9.01225 7.61197 7.6119C9.01232 6.21155 10.6503 5.10669 12.526 4.29731C14.4017 3.48794 16.3931 3.08325 18.5 3.08325C20.6326 3.08325 22.6304 3.48794 24.4932 4.29731C26.3561 5.10669 27.9877 6.21155 29.388 7.6119C30.7884 9.01225 31.8932 10.6438 32.7026 12.5067C33.512 14.3695 33.9167 16.3673 33.9167 18.4999C33.9167 20.6069 33.512 22.5982 32.7026 24.4739C31.8932 26.3496 30.7884 27.9876 29.388 29.3879C27.9877 30.7883 26.3561 31.8931 24.4932 32.7025C22.6304 33.5119 20.6326 33.9166 18.5 33.9166ZM18.5 30.7562C19.1681 29.8312 19.7462 28.8676 20.2344 27.8655C20.7226 26.8635 21.1208 25.7971 21.4292 24.6666H15.5708C15.8792 25.7971 16.2774 26.8635 16.7656 27.8655C17.2538 28.8676 17.8319 29.8312 18.5 30.7562ZM14.4917 30.1395C14.0292 29.2916 13.6245 28.4116 13.2776 27.4994C12.9307 26.5872 12.6417 25.643 12.4104 24.6666H7.8625C8.60763 25.9513 9.53906 27.069 10.6568 28.0197C11.7745 28.9704 13.0528 29.677 14.4917 30.1395ZM22.5083 30.1395C23.9472 29.677 25.2255 28.9704 26.3432 28.0197C27.4609 27.069 28.3924 25.9513 29.1375 24.6666H24.5896C24.3583 25.643 24.0693 26.5872 23.7224 27.4994C23.3755 28.4116 22.9708 29.2916 22.5083 30.1395ZM6.55208 21.5833H11.7937C11.7167 21.0694 11.6588 20.5619 11.6203 20.0609C11.5818 19.5598 11.5625 19.0395 11.5625 18.4999C11.5625 17.9603 11.5818 17.44 11.6203 16.939C11.6588 16.4379 11.7167 15.9305 11.7937 15.4166H6.55208C6.42361 15.9305 6.32725 16.4379 6.26302 16.939C6.19878 17.44 6.16666 17.9603 6.16666 18.4999C6.16666 19.0395 6.19878 19.5598 6.26302 20.0609C6.32725 20.5619 6.42361 21.0694 6.55208 21.5833ZM14.8771 21.5833H22.1229C22.2 21.0694 22.2578 20.5619 22.2964 20.0609C22.3349 19.5598 22.3542 19.0395 22.3542 18.4999C22.3542 17.9603 22.3349 17.44 22.2964 16.939C22.2578 16.4379 22.2 15.9305 22.1229 15.4166H14.8771C14.8 15.9305 14.7422 16.4379 14.7036 16.939C14.6651 17.44 14.6458 17.9603 14.6458 18.4999C14.6458 19.0395 14.6651 19.5598 14.7036 20.0609C14.7422 20.5619 14.8 21.0694 14.8771 21.5833ZM25.2062 21.5833H30.4479C30.5764 21.0694 30.6727 20.5619 30.737 20.0609C30.8012 19.5598 30.8333 19.0395 30.8333 18.4999C30.8333 17.9603 30.8012 17.44 30.737 16.939C30.6727 16.4379 30.5764 15.9305 30.4479 15.4166H25.2062C25.2833 15.9305 25.3411 16.4379 25.3797 16.939C25.4182 17.44 25.4375 17.9603 25.4375 18.4999C25.4375 19.0395 25.4182 19.5598 25.3797 20.0609C25.3411 20.5619 25.2833 21.0694 25.2062 21.5833ZM24.5896 12.3333H29.1375C28.3924 11.0485 27.4609 9.93082 26.3432 8.98013C25.2255 8.02943 23.9472 7.32284 22.5083 6.86034C22.9708 7.70825 23.3755 8.58829 23.7224 9.50044C24.0693 10.4126 24.3583 11.3569 24.5896 12.3333ZM15.5708 12.3333H21.4292C21.1208 11.2027 20.7226 10.1364 20.2344 9.13429C19.7462 8.13221 19.1681 7.16867 18.5 6.24367C17.8319 7.16867 17.2538 8.13221 16.7656 9.13429C16.2774 10.1364 15.8792 11.2027 15.5708 12.3333ZM7.8625 12.3333H12.4104C12.6417 11.3569 12.9307 10.4126 13.2776 9.50044C13.6245 8.58829 14.0292 7.70825 14.4917 6.86034C13.0528 7.32284 11.7745 8.02943 10.6568 8.98013C9.53906 9.93082 8.60763 11.0485 7.8625 12.3333Z" fill="#F19C3D"/>
</svg>
