<svg width="31" height="31" viewBox="0 0 31 31" fill="none" xmlns="http://www.w3.org/2000/svg">
<path d="M15.5 28.4166C15.1987 28.4166 14.9403 28.3305 14.725 28.1583C14.5098 27.986 14.3483 27.76 14.2407 27.4801C13.8316 26.2746 13.315 25.1444 12.6907 24.0895C12.0879 23.0346 11.2375 21.7968 10.1396 20.376C9.04171 18.9551 8.1483 17.5989 7.45942 16.3072C6.79205 15.0155 6.45837 13.4548 6.45837 11.6249C6.45837 9.10617 7.33025 6.97492 9.074 5.23117C10.8393 3.46589 12.9813 2.58325 15.5 2.58325C18.0188 2.58325 20.15 3.46589 21.8938 5.23117C23.6591 6.97492 24.5417 9.10617 24.5417 11.6249C24.5417 13.5839 24.165 15.2201 23.4115 16.5333C22.6796 17.8249 21.8292 19.1058 20.8605 20.376C19.698 21.926 18.8153 23.2176 18.2125 24.251C17.6313 25.2628 17.1469 26.3392 16.7594 27.4801C16.6518 27.7815 16.4796 28.0183 16.2427 28.1905C16.0275 28.3412 15.7799 28.4166 15.5 28.4166ZM15.5 23.7989C15.866 23.0669 16.275 22.3458 16.7271 21.6353C17.2007 20.9249 17.8896 19.9777 18.7938 18.7937C19.7195 17.5881 20.473 16.4794 21.0542 15.4676C21.657 14.4343 21.9584 13.1534 21.9584 11.6249C21.9584 9.83811 21.3233 8.3204 20.0532 7.07179C18.8046 5.80165 17.2868 5.16658 15.5 5.16658C13.7132 5.16658 12.1848 5.80165 10.9146 7.07179C9.66601 8.3204 9.04171 9.83811 9.04171 11.6249C9.04171 13.1534 9.33233 14.4343 9.91358 15.4676C10.5164 16.4794 11.2806 17.5881 12.2063 18.7937C13.1105 19.9777 13.7886 20.9249 14.2407 21.6353C14.7143 22.3458 15.1341 23.0669 15.5 23.7989ZM15.5 14.8541C16.4042 14.8541 17.1684 14.5419 17.7927 13.9176C18.4171 13.2933 18.7292 12.5291 18.7292 11.6249C18.7292 10.7208 18.4171 9.95652 17.7927 9.33221C17.1684 8.7079 16.4042 8.39575 15.5 8.39575C14.5959 8.39575 13.8316 8.7079 13.2073 9.33221C12.583 9.95652 12.2709 10.7208 12.2709 11.6249C12.2709 12.5291 12.583 13.2933 13.2073 13.9176C13.8316 14.5419 14.5959 14.8541 15.5 14.8541Z" fill="#852221"/>
</svg>
